<svg xmlns="http://www.w3.org/2000/svg" width="57" height="62" viewBox="0 0 57 62">
  <path fill-rule="evenodd" clip-rule="evenodd"
    d="M32.2374 5.43559C34.2233 6.32363 36.3416 7.79656 38.3592 9.84094C40.2259 11.7324 41.7008 13.7446 42.5984 15.636C41.8782 18.5711 37.0803 22.7726 31.6734 26.4831C31.6628 27.2182 31.6549 27.905 31.6549 28.4711C31.6549 29.1687 31.6602 29.826 31.6787 30.5262C38.0891 27.1914 45.0503 24.5728 48.2118 25.4931C49.3822 27.2262 50.3645 29.5255 51.0476 32.1118C51.7864 34.9047 51.9876 37.4964 51.7493 39.6857C53.0388 41.3706 54.4236 42.6879 55.7555 43.5303C56.5366 39.3906 57.0026 34.9879 57 30.4457C56.9947 24.9431 56.3936 19.6899 55.2604 14.8017C51.6514 11.3622 47.4572 8.19631 42.7546 5.44364C38.8702 3.17389 34.88 1.38438 30.9532 0C31.0062 1.58829 31.4404 3.46096 32.2374 5.43559ZM14.2427 5.44364C9.54281 8.19631 5.34864 11.3622 1.73964 14.8017C0.606366 19.6899 0.0053069 24.9431 1.12232e-05 30.4457C-0.00263661 34.9879 0.463383 39.3906 1.24185 43.5303C2.57636 42.6879 3.96117 41.3706 5.24802 39.6857C5.01237 37.4964 5.2136 34.9047 5.95235 32.1118C6.63549 29.5255 7.61784 27.2262 8.78553 25.4931C11.9497 24.5728 18.9082 27.1914 25.3213 30.5262C25.3372 29.826 25.3425 29.1687 25.3425 28.4711C25.3425 27.905 25.3372 27.2182 25.3239 26.4831C19.9197 22.7726 15.1218 18.5711 14.4016 15.636C15.2992 13.7446 16.7741 11.7324 18.6408 9.84094C20.6584 7.79656 22.7741 6.32363 24.7626 5.43559C25.5622 3.46096 25.9938 1.58829 26.0468 0C22.12 1.38438 18.1271 3.17389 14.2427 5.44364ZM23.6876 12.3683C23.6876 14.1497 24.6302 15.7112 26.0415 16.559C23.3407 16.7709 24.6646 20.2346 26.6134 20.197C26.8199 22.016 26.9285 26.1826 26.9285 28.4792C26.9285 36.9867 25.7688 47.3937 22.8826 50.2108C20.82 50.3718 18.3628 50.0847 15.8102 49.3871C13.0538 48.644 10.737 47.5225 8.98412 46.224C6.89762 46.5084 5.08121 47.0664 3.69639 47.8123C6.84467 50.5703 10.3689 53.1754 14.2533 55.4452C18.8235 58.1227 23.8597 60.312 28.4987 61.75C33.09 60.312 38.1739 58.1227 42.7467 55.4452C46.6311 53.1754 50.1553 50.5703 53.3036 47.8123C51.9188 47.0664 50.1024 46.5084 48.0132 46.224C46.263 47.5252 43.9435 48.644 41.1898 49.3925C38.6372 50.0847 36.1774 50.3718 34.1174 50.2135C31.2312 47.3937 30.0715 36.9867 30.0715 28.4792C30.0715 26.1853 30.1774 22.0187 30.3839 20.197C32.3327 20.2346 33.6593 16.7709 30.9585 16.559C32.3672 15.7112 33.3098 14.1497 33.3098 12.3683C33.3098 9.67729 31.1545 7.49608 28.4987 7.49339C25.8455 7.49608 23.6876 9.67729 23.6876 12.3683ZM26.2771 12.3682C26.2771 11.126 27.2621 10.1173 28.4987 10.1173C29.7379 10.1173 30.7229 11.126 30.7229 12.3682C30.7229 13.6104 29.7273 14.6192 28.4987 14.6192C27.2727 14.6192 26.2771 13.6104 26.2771 12.3682ZM31.835 34.2957C33.5322 35.3447 35.3566 36.5199 36.3045 37.2335C35.2957 38.9237 37.5993 41.8186 39.1271 39.5542C39.1483 41.2176 40.0088 42.8247 41.5313 43.7154C43.8323 45.0596 46.774 44.2574 48.1059 41.9313C49.4325 39.5998 48.6461 36.6164 46.3451 35.2696C44.8199 34.3789 43.0168 34.4299 41.5843 35.2428C42.7573 32.7665 39.1324 32.195 38.1898 33.9255C36.7176 33.2789 33.707 31.6933 31.6787 30.5316C31.7052 31.8113 31.7582 33.0374 31.835 34.2957ZM42.8261 41.443C41.767 40.8205 41.3989 39.4415 42.0132 38.3657C42.6275 37.2898 43.9859 36.9223 45.0477 37.5447C46.1121 38.1645 46.4828 39.5328 45.8632 40.6166C45.4501 41.3437 44.7061 41.7462 43.9409 41.7462C43.5622 41.7462 43.1783 41.6496 42.8261 41.443ZM18.8102 33.9255C17.8676 32.195 14.2427 32.7665 15.4157 35.2428C13.9832 34.4299 12.1801 34.3789 10.6549 35.2696C8.35658 36.6164 7.57017 39.5998 8.89409 41.9313C10.2233 44.2574 13.1677 45.0596 15.4687 43.7154C16.9912 42.8247 17.8517 41.2176 17.8729 39.5542C19.4007 41.8186 21.7043 38.9237 20.6955 37.2335C21.6408 36.5199 23.4651 35.3447 25.165 34.2957C25.2418 33.0374 25.2948 31.8113 25.3213 30.5316C23.293 31.6933 20.2824 33.2789 18.8102 33.9255ZM11.1368 40.6166C10.5172 39.5328 10.8879 38.1645 11.9497 37.5447C13.0141 36.9223 14.3725 37.2898 14.9868 38.3657C15.5984 39.4415 15.2357 40.8205 14.1712 41.443C13.8191 41.6496 13.4378 41.7462 13.0591 41.7462C12.2939 41.7462 11.5499 41.3437 11.1368 40.6166Z"
    fill="#000" />
</svg>